<svg id="Calque_1" data-name="Calque 1" xmlns="http://www.w3.org/2000/svg" viewBox="0 0 343.78 82.75"><defs><style>.cls-1{font-size:35px;stroke:#fff;stroke-miterlimit:10;font-family:ElementalEnd, Elemental End;}.cls-1,.cls-3{fill:#fff;}.cls-2{letter-spacing:-0.1em;}</style></defs><title>CREAT</title><text class="cls-1" transform="translate(0.5 63.36)">CRE<tspan class="cls-2" x="92.29" y="0">A</tspan><tspan x="117.89" y="0">TIVE</tspan></text><text class="cls-1" transform="translate(245.87 63.36)">WEB</text><path class="cls-3" d="M309,86.25a11.79,11.79,0,0,1-.28,1.34c-.19.61-.46,1.19-.69,1.78-.44,1.18-.89,2.36-1.3,3.55-.61,1.75-1.23,3.49-1.78,5.26s-1.07,3.44-1.48,5.2c-.85,3.61-1.61,7.25-2.42,10.88-.69,3.07-1.36,6.14-2.11,9.19a39.16,39.16,0,0,1-2.46,6.88,31.49,31.49,0,0,1-2.15,4c-.84,1.27-1.72,2.5-2.61,3.72-.43.58-.94,1.1-1.39,1.66a.66.66,0,0,0-.12.43,3.14,3.14,0,0,1,0,1.33,1.94,1.94,0,0,1-.81,1.09c-.29.18-.6.33-.89.51a.93.93,0,0,0-.28.28l-2,3.36c-.84,1.38-1.67,2.77-2.54,4.13a1,1,0,0,0-.12,1.14,7.69,7.69,0,0,1,.65,4,11.68,11.68,0,0,1-1.8,5.32,14,14,0,0,1-1.91,2.41,6.46,6.46,0,0,1-1.4,1.08,13.14,13.14,0,0,1-2.22,1,4.12,4.12,0,0,1-.78.14l-1.6,0-.15,0c-.54-.08-1.09-.12-1.62-.24a8.52,8.52,0,0,1-2-.74c-.33-.17-.69-.3-1-.49-.68-.4-1.36-.81-2-1.25a16,16,0,0,1-1.32-1c-.5-.41-1-.83-1.45-1.26s-1.16-1.11-1.72-1.69c-.24-.24-.5-.49-.41-.9s.43-.53.82-.37a.52.52,0,0,0,.54,0,1.78,1.78,0,0,1,.66-.16,14.44,14.44,0,0,0,2.19-.31,7.71,7.71,0,0,0,1.82-.9,5.81,5.81,0,0,0,1.72-1.7c.88-1.25,1.71-2.52,2.61-3.75a19.33,19.33,0,0,1,1.62-1.88,3.87,3.87,0,0,1,.93-.59,4.7,4.7,0,0,1,2.57-.55c.22,0,.31-.08.38-.29.64-2,1.29-4,1.93-6,.19-.58.37-1.17.56-1.75a1,1,0,0,0,0-.73,4,4,0,0,1-.36-1.9,2.21,2.21,0,0,1,.62-1.29.92.92,0,0,0,.22-.58c.05-.68.05-1.37.09-2.05a33.67,33.67,0,0,1,3.92-13.84c.74-1.4,1.57-2.75,2.41-4.1s1.57-2.4,2.38-3.58,1.71-2.42,2.55-3.64c.71-1,1.42-2.07,2.1-3.12,1-1.51,2-3,2.92-4.56.69-1.12,1.33-2.27,1.93-3.44.81-1.58,1.58-3.18,2.33-4.8.92-2,1.69-4,2.43-6.07a7.69,7.69,0,0,1,1.39-2.44,2.43,2.43,0,0,1,1-.74,1.21,1.21,0,0,1,1.49.71,8.4,8.4,0,0,1,.39,1.2ZM282.58,137a1,1,0,0,0-.84,1.4,5.51,5.51,0,0,1,.36.68,1.14,1.14,0,0,1,.18.83c-.12.38-.2.77-.31,1.15q-1.07,3.58-2.15,7.16c-.07.23,0,.34.24.42s.25-.1.3-.23c.2-.57.41-1.14.6-1.72l2.1-6.54a.89.89,0,0,0-.05-.68l-.48-1.06c-.22-.53-.16-.7.3-1.06.06-.05.13-.16.11-.21s-.13-.1-.21-.13A.37.37,0,0,0,282.58,137Z" transform="translate(-56.69 -83.28)"/></svg>